<?xml version="1.0" standalone="no"?><!DOCTYPE svg PUBLIC "-//W3C//DTD SVG 1.1//EN" "http://www.w3.org/Graphics/SVG/1.1/DTD/svg11.dtd"><svg t="1588757128867" class="icon" viewBox="0 0 1024 1024" version="1.1" xmlns="http://www.w3.org/2000/svg" p-id="4021" width="28" height="28" xmlns:xlink="http://www.w3.org/1999/xlink"><defs><style type="text/css"></style></defs><path d="M345.6 494.933333v-213.333333c0-25.6-17.066667-42.666667-42.666667-42.666667h-42.666666c-25.6 0-42.666667 17.066667-42.666667 42.666667v256c0 25.6 17.066667 42.666667 42.666667 42.666667h85.333333c51.2 0 98.133333 29.866667 115.2 76.8l38.4 98.133333c8.533333 21.333333 29.866667 29.866667 51.2 25.6l25.6-8.533333c34.133333-12.8 55.466667-46.933333 46.933333-85.333334l-17.066666-81.066666c-4.266667-12.8 4.266667-21.333333 17.066666-25.6h136.533334c25.6 0 42.666667-17.066667 42.666666-42.666667v-8.533333l-64-256c-4.266667-17.066667-21.333333-34.133333-42.666666-34.133334h-221.866667c-12.8 0-21.333333 8.533333-21.333333 21.333334s8.533333 21.333333 21.333333 21.333333h221.866667l55.466666 221.866667 8.533334 34.133333h-157.866667c-25.6 0-42.666667 17.066667-42.666667 42.666667v8.533333l25.6 106.666667c4.266667 12.8-4.266667 29.866667-21.333333 34.133333-12.8 4.266667-29.866667-4.266667-34.133333-17.066667l-29.866667-72.533333c-25.6-64-89.6-106.666667-157.866667-106.666667l4.266667-38.4z m-85.333333 21.333334v-213.333334c0-12.8 8.533333-21.333333 21.333333-21.333333s21.333333 8.533333 21.333333 21.333333v213.333334c0 12.8-8.533333 21.333333-21.333333 21.333333-8.533333 0-21.333333-8.533333-21.333333-21.333333z" p-id="4022" fill="#8a8a8a"></path></svg>