<?xml version="1.0" standalone="no"?><!DOCTYPE svg PUBLIC "-//W3C//DTD SVG 1.1//EN" "http://www.w3.org/Graphics/SVG/1.1/DTD/svg11.dtd"><svg t="1588423850369" class="icon" viewBox="0 0 1024 1024" version="1.1" xmlns="http://www.w3.org/2000/svg" p-id="6695" xmlns:xlink="http://www.w3.org/1999/xlink" width="18" height="18"><defs><style type="text/css"></style></defs><path d="M784.384 1024h-348.16c-47.104 0-86.016-38.912-86.016-86.016V542.72c0-20.48 4.096-40.96 12.288-61.44l77.824-192.512c16.384-43.008 57.344-69.632 104.448-69.632 30.72 0 61.44 12.288 81.92 36.864 20.48 22.528 32.768 53.248 28.672 83.968l-10.24 133.12v2.048H819.2c38.912 0 77.824 16.384 104.448 47.104 26.624 30.72 38.912 69.632 32.768 108.544L921.6 905.216c-8.192 67.584-67.584 118.784-137.216 118.784zM546.816 303.104c-12.288 0-22.528 8.192-26.624 18.432l-77.824 192.512c-4.096 10.24-6.144 18.432-6.144 28.672v395.264c0 2.048 2.048 2.048 2.048 2.048h348.16c26.624 0 51.2-20.48 55.296-47.104l36.864-270.336c2.048-16.384-2.048-30.72-12.288-43.008s-24.576-18.432-40.96-18.432h-172.032c-24.576 0-47.104-10.24-63.488-26.624-16.384-16.384-24.576-40.96-22.528-65.536l10.24-133.12c0-8.192-2.048-16.384-8.192-22.528-6.144-6.144-14.336-10.24-22.528-10.24zM206.848 1021.952c-59.392 0-106.496-47.104-106.496-106.496V598.016c0-59.392 47.104-106.496 106.496-106.496s106.496 47.104 106.496 106.496v317.44c2.048 59.392-47.104 106.496-106.496 106.496z m0-448.512c-14.336 0-24.576 10.24-24.576 24.576v317.44c0 14.336 10.24 24.576 24.576 24.576s24.576-10.24 24.576-24.576V598.016c0-14.336-10.24-24.576-24.576-24.576zM559.104 169.984c-22.528 0-38.912-16.384-38.912-36.864V36.864c0-20.48 16.384-36.864 36.864-36.864S593.92 16.384 593.92 36.864v94.208c4.096 22.528-14.336 38.912-34.816 38.912zM794.624 350.208c-4.096-20.48 8.192-40.96 28.672-45.056l92.16-20.48c20.48-4.096 40.96 8.192 45.056 28.672 4.096 20.48-8.192 40.96-28.672 45.056l-92.16 20.48c-20.48 4.096-38.912-8.192-45.056-28.672zM722.944 212.992c-16.384-14.336-20.48-36.864-6.144-53.248l57.344-73.728c12.288-16.384 36.864-18.432 53.248-6.144 16.384 12.288 18.432 36.864 6.144 53.248l-57.344 73.728c-12.288 16.384-36.864 18.432-53.248 6.144z" fill="#999" p-id="6696"></path></svg>